<svg aria-hidden="true" style="position: absolute; width: 0; height: 0; overflow: hidden;" version="1.1" xmlns="http://www.w3.org/2000/svg" xmlns:xlink="http://www.w3.org/1999/xlink">
<defs>
<symbol id="icon-men" viewBox="0 0 24 32">
<path fill="#4c68ff" style="fill: var(--color1, #4c68ff)" d="M20.969 20.017l-1.798-0.528-3.912-2.555v-0.585c1.133-0.854 1.91-2.16 2.055-3.657 0.568-0.091 1.003-0.585 1.003-1.178v-1.61c0-0.006-0.001-0.012-0.001-0.019v-2.040c0.226-0.162 0.37-0.426 0.37-0.722v-1.866l2.7-0.46c0.444-0.076 0.763-0.428 0.794-0.877s-0.236-0.842-0.665-0.979l-9.102-2.895c-0.19-0.060-0.391-0.060-0.58-0l-9.102 2.895c-0.429 0.136-0.696 0.53-0.665 0.979 0.020 0.285 0.156 0.531 0.367 0.692v2.441h-0.022c-0.513 0-0.93 0.417-0.93 0.929v1.212l-0.6 3.522c-0.104 0.609 0.365 1.167 0.985 1.167h2.032c0.618 0 1.089-0.556 0.985-1.167l-0.6-3.522v-1.212c0-0.513-0.417-0.929-0.929-0.929h-0.022v-2.176l2.232 0.38v1.866c0 0.295 0.143 0.558 0.368 0.721l0.001 2.060v1.61c0 0.593 0.435 1.087 1.003 1.178 0.145 1.496 0.921 2.801 2.053 3.656v0.588l-3.911 2.555-1.797 0.527c-1.923 0.564-3.28 2.329-3.28 4.381v1.338c0 0.248 0.201 0.449 0.449 0.449s0.449-0.201 0.449-0.449v-1.338c0-1.617 1.084-3.065 2.635-3.52l1.674-0.491 6.688 3.974c0.136 0.081 0.315 0.085 0.459 0l6.689-3.975 1.674 0.491c1.551 0.455 2.635 1.903 2.635 3.52v4.335c0 0.556-0.452 1.008-1.008 1.008h-1.978v-1.934c0-0.248-0.201-0.449-0.449-0.449s-0.449 0.201-0.449 0.449v1.934h-14.688v-1.934c0-0.248-0.201-0.449-0.449-0.449s-0.449 0.201-0.449 0.449v1.934h-1.976c-0.556 0-1.008-0.452-1.008-1.008v-0.899c0-0.248-0.201-0.449-0.449-0.449s-0.449 0.201-0.449 0.449v0.899c0 1.051 0.855 1.906 1.906 1.906h20.437c1.051 0 1.906-0.855 1.906-1.906v-4.335c0-2.003-1.311-3.803-3.28-4.381zM3.898 12.984h-2.031c-0.063 0-0.111-0.056-0.1-0.118l0.543-3.186h1.146l0.543 3.186c0.011 0.062-0.037 0.118-0.1 0.118zM3.385 7.981v0.801h-1.006v-0.801c0-0.018 0.014-0.032 0.032-0.032h0.942c0.018-0 0.032 0.014 0.032 0.032zM10.52 22.331l0.179 0.274-4.582-2.723 2.908-1.9c0.132 1.547 0.642 3.037 1.495 4.348zM10.516 20.394c1.056 0.15 2.159 0.15 3.216 0-0.204 0.503-0.456 0.987-0.755 1.448l-0.853 1.311-0.853-1.311c-0.3-0.46-0.551-0.945-0.755-1.448zM13.73 22.331c0.853-1.311 1.363-2.8 1.495-4.348l2.908 1.9-4.582 2.723 0.179-0.274zM16.355 8.011h1.064v1.442h-0.528c-0.295 0-0.536-0.24-0.536-0.536v-0.906zM3.004 3.796l9.102-2.895c0.012-0.004 0.024-0.004 0.036 0l9.102 2.895c0.019 0.006 0.044 0.014 0.041 0.061s-0.030 0.051-0.050 0.055l-3.009 0.513-1.13-0.14c-0.246-0.030-0.47 0.144-0.5 0.39s0.144 0.47 0.39 0.5l0.802 0.099v1.84l-11.328-0v-1.84l4.644-0.575c0.676-0.084 1.362-0.084 2.038 0l1.758 0.217c0.246 0.030 0.47-0.144 0.5-0.39s-0.144-0.47-0.39-0.5l-1.758-0.217c-0.749-0.093-1.509-0.093-2.259 0l-4.972 0.615-3.010-0.513c-0.019-0.003-0.046-0.008-0.049-0.055s0.023-0.055 0.041-0.061zM6.829 9.454l-0.001-1.442h1.065v0.906c0 0.295-0.24 0.536-0.536 0.536l-0.529-0zM7.817 12.46c-0.023-0.365-0.327-0.652-0.691-0.652-0.163 0-0.296-0.133-0.296-0.296v-1.161h0.529c0.79 0 1.433-0.643 1.433-1.433v-0.906h6.666v0.906c0 0.79 0.643 1.433 1.433 1.433h0.529v1.161c0 0.163-0.133 0.296-0.296 0.296-0.365 0-0.668 0.286-0.692 0.652-0.143 2.266-2.035 4.041-4.307 4.041s-4.164-1.775-4.307-4.041zM12.125 17.399c0.798 0 1.557-0.183 2.237-0.507v0.284c0 0.767-0.104 1.524-0.303 2.254-1.22 0.233-2.599 0.242-3.868 0-0.199-0.73-0.303-1.487-0.303-2.254 0-0.009-0.001-0.019-0.002-0.028-0-0.002 0-0.004-0-0.006v-0.252c0.68 0.325 1.44 0.508 2.239 0.508z"></path>
</symbol>
<symbol id="icon-red" viewBox="0 0 32 32">
<path fill="#ff4848" style="fill: var(--color2, #ff4848)" d="M28.235 12.235c0 6.757-5.478 12.235-12.235 12.235s-12.235-5.478-12.235-12.235c0-6.757 5.478-12.235 12.235-12.235s12.235 5.478 12.235 12.235z"></path>
<path fill="#fff" style="fill: var(--color3, #fff)" d="M20.317 11.63c0.211 0.117 0.216 0.418 0.009 0.542l-6.564 3.944c-0.206 0.124-0.47-0.022-0.474-0.263l-0.134-7.656c-0.004-0.241 0.254-0.396 0.464-0.279l6.698 3.712z"></path>
</symbol>
</defs>
</svg>
